<svg width="14" height="14" viewBox="0 0 14 14" fill="none" xmlns="http://www.w3.org/2000/svg">
<path d="M11.0835 11.6667H2.91684C2.76213 11.6667 2.61376 11.7281 2.50436 11.8375C2.39496 11.9469 2.33351 12.0953 2.33351 12.25C2.33351 12.4047 2.39496 12.5531 2.50436 12.6625C2.61376 12.7719 2.76213 12.8334 2.91684 12.8334H11.0835C11.2382 12.8334 11.3866 12.7719 11.496 12.6625C11.6054 12.5531 11.6668 12.4047 11.6668 12.25C11.6668 12.0953 11.6054 11.9469 11.496 11.8375C11.3866 11.7281 11.2382 11.6667 11.0835 11.6667ZM2.91684 10.5H2.96934L5.40184 10.2784C5.6683 10.2518 5.91753 10.1344 6.10767 9.94585L11.3577 4.69585C11.5614 4.48058 11.6716 4.19332 11.6639 3.897C11.6563 3.60068 11.5314 3.31948 11.3168 3.11502L9.71851 1.51669C9.5099 1.32074 9.23655 1.20831 8.95045 1.20078C8.66435 1.19325 8.38546 1.29115 8.16684 1.47585L2.91684 6.72585C2.72829 6.916 2.61088 7.16522 2.58434 7.43169L2.33351 9.86419C2.32565 9.94963 2.33673 10.0357 2.36598 10.1164C2.39522 10.1971 2.44189 10.2703 2.50267 10.3309C2.55718 10.3849 2.62182 10.4277 2.69289 10.4567C2.76397 10.4857 2.84007 10.5005 2.91684 10.5ZM8.90767 2.33335L10.5002 3.92585L9.33351 5.06335L7.77017 3.50002L8.90767 2.33335Z" fill="white"/>
</svg>
