<svg width="28" height="28" viewBox="0 0 28 28" fill="none" xmlns="http://www.w3.org/2000/svg">
<path d="M25.4936 17.0064L23.125 14.6378V11.5C23.1223 9.33161 22.3156 7.24124 20.8611 5.63311C19.4065 4.02498 17.4072 3.01332 15.25 2.79375V1H13.5V2.79375C11.3428 3.01332 9.34354 4.02498 7.88895 5.63311C6.43436 7.24124 5.62771 9.33161 5.625 11.5V14.6378L3.25637 17.0064C3.09227 17.1704 3.00005 17.393 3 17.625V20.25C3 20.4821 3.09219 20.7046 3.25628 20.8687C3.42038 21.0328 3.64294 21.125 3.875 21.125H10V22C10 23.1603 10.4609 24.2731 11.2814 25.0936C12.1019 25.9141 13.2147 26.375 14.375 26.375C15.5353 26.375 16.6481 25.9141 17.4686 25.0936C18.2891 24.2731 18.75 23.1603 18.75 22V21.125H24.875C25.1071 21.125 25.3296 21.0328 25.4937 20.8687C25.6578 20.7046 25.75 20.4821 25.75 20.25V17.625C25.75 17.393 25.6577 17.1704 25.4936 17.0064ZM17 22C17 22.6962 16.7234 23.3639 16.2312 23.8562C15.7389 24.3484 15.0712 24.625 14.375 24.625C13.6788 24.625 13.0111 24.3484 12.5188 23.8562C12.0266 23.3639 11.75 22.6962 11.75 22V21.125H17V22Z" fill="black"/>
<circle cx="22" cy="6" r="4.5" fill="#009FEE" stroke="#F8F8F8"/>
</svg>
